<svg width="24" height="24" viewBox="0 0 24 24" fill="none" xmlns="http://www.w3.org/2000/svg">
<path fill-rule="evenodd" clip-rule="evenodd" d="M7.19976 19.1993C5.87981 19.1993 4.81185 20.2793 4.81185 21.5993C4.81185 22.9192 5.87981 23.9992 7.19976 23.9992C8.51972 23.9992 9.59968 22.9192 9.59968 21.5993C9.59968 20.2793 8.51972 19.1993 7.19976 19.1993ZM0 0V2.39992H2.39992L6.71977 11.5076L5.09983 14.4475C4.90783 14.7835 4.79984 15.1795 4.79984 15.5995C4.79984 16.9194 5.8798 17.9994 7.19975 17.9994H21.5993V15.5995H7.70374C7.53574 15.5995 7.40375 15.4675 7.40375 15.2995L7.43974 15.1555L8.51971 13.1995H17.4594C18.3594 13.1995 19.1513 12.7076 19.5593 11.9636L23.8552 4.17586C24.0566 3.80333 24.0474 3.35236 23.8309 2.98836C23.6145 2.62436 23.2227 2.40089 22.7992 2.39992H5.05183L3.92387 0H0ZM19.1994 19.1993C17.8794 19.1993 16.8114 20.2793 16.8114 21.5993C16.8114 22.9192 17.8794 23.9992 19.1994 23.9992C20.5193 23.9992 21.5993 22.9192 21.5993 21.5993C21.5993 20.2793 20.5193 19.1993 19.1994 19.1993Z" fill="black"/>
</svg>
