<svg width="20" height="17" viewBox="0 0 20 17" fill="none" xmlns="http://www.w3.org/2000/svg">
<path d="M15.2823 12.2324L19.3653 15.8158L18.0164 17L13.9344 13.4157C12.4155 14.4846 10.5263 15.0659 8.57969 15.0635C3.8437 15.0635 0 11.6893 0 7.53175C0 3.37422 3.8437 0 8.57969 0C13.3157 0 17.1594 3.37422 17.1594 7.53175C17.1622 9.24062 16.4999 10.8991 15.2823 12.2324ZM13.37 11.6115C14.5799 10.5193 15.2555 9.0552 15.2528 7.53175C15.2528 4.29477 12.2661 1.67372 8.57969 1.67372C4.89233 1.67372 1.9066 4.29477 1.9066 7.53175C1.9066 10.7679 4.89233 13.3898 8.57969 13.3898C10.3151 13.3922 11.9829 12.7991 13.227 11.737L13.37 11.6115Z" fill="#838383"/>
</svg>
