<svg width="59" height="59" viewBox="0 0 59 59" fill="none" xmlns="http://www.w3.org/2000/svg">
<path fill-rule="evenodd" clip-rule="evenodd" d="M17.6994 47.2C14.4545 47.2 11.8291 49.855 11.8291 53.1C11.8291 56.345 14.4545 59 17.6994 59C20.9443 59 23.5992 56.345 23.5992 53.1C23.5992 49.855 20.9443 47.2 17.6994 47.2ZM0 0V5.9H5.8998L16.5194 28.2905L12.5371 35.518C12.0651 36.344 11.7996 37.3175 11.7996 38.35C11.7996 41.595 14.4545 44.25 17.6994 44.25H53.0982V38.35H18.9384C18.5254 38.35 18.2009 38.0255 18.2009 37.6125L18.2894 37.2585L20.9443 32.45H42.921C45.1334 32.45 47.0804 31.2405 48.0833 29.4115L58.644 10.266C59.1391 9.35017 59.1165 8.24151 58.5844 7.34665C58.0523 6.45178 57.0891 5.9024 56.0481 5.9H12.4191L9.64617 0H0ZM47.1984 47.2C43.9535 47.2 41.3281 49.855 41.3281 53.1C41.3281 56.345 43.9535 59 47.1984 59C50.4433 59 53.0982 56.345 53.0982 53.1C53.0982 49.855 50.4433 47.2 47.1984 47.2Z" fill="#A0BEFB"/>
</svg>
